<?xml version="1.0" encoding="utf-8"?>
<!-- Generator: Adobe Illustrator 15.0.2, SVG Export Plug-In . SVG Version: 6.00 Build 0)  -->
<!DOCTYPE svg PUBLIC "-//W3C//DTD SVG 1.1//EN" "http://www.w3.org/Graphics/SVG/1.1/DTD/svg11.dtd">
<svg version="1.1" id="Layer_3" xmlns="http://www.w3.org/2000/svg" xmlns:xlink="http://www.w3.org/1999/xlink" x="0px" y="0px"
	 width="595.28px" height="453.543px" viewBox="0 0 595.28 453.543" enable-background="new 0 0 595.28 453.543"
	 xml:space="preserve">
<path fill="#AAAAAA" d="M484.483,49.328c-18.029-8.871-38.313-13.861-59.764-13.861c-66.533,0.002-121.867,47.932-133.37,111.146
	c0,0,11.868-2.606,31.965-16.396c22.902-15.712,31.834-36.442,67.834-43.442c-30.375,12.947-36.334,33.333-34.873,54.428
	c11.338-24.875,36.418-42.165,65.539-42.165c39.766,0,72,32.235,72,72c0,39.205-31.339,72.692-70.334,71.96
	c-13.403-0.252-43.044-13.399-74.213-30.578c-30.024-16.548-88.918-51.731-119.237-67.736
	c-17.677-9.332-38.139-13.717-59.477-13.717c-74.873,0-135.572,60.697-135.572,135.572c0,53.422,30.905,99.619,75.808,121.708
	c18.03,8.871,38.313,13.861,59.765,13.861c66.533-0.002,121.867-47.931,133.37-111.144c0,0-11.868,2.605-31.966,16.395
	c-22.901,15.713-31.834,36.443-67.834,43.443c30.376-12.947,36.334-33.334,34.873-54.428
	c-11.338,24.875-36.417,42.164-65.539,42.164c-39.765,0-72-32.234-72-72c0-39.205,31.339-72.691,70.334-71.959
	c13.403,0.252,43.045,13.399,74.214,30.578c30.025,16.548,88.919,51.731,119.237,67.736c17.677,9.332,38.139,13.717,59.477,13.717
	c74.873,0,135.572-60.697,135.572-135.572C560.292,117.615,529.386,71.417,484.483,49.328z"/>
</svg>
